<?xml version="1.0" encoding="UTF-8" standalone="no"?>
<!-- Created with Inkscape (http://www.inkscape.org/) -->

<svg
   xmlns:dc="http://purl.org/dc/elements/1.1/"
   xmlns:cc="http://creativecommons.org/ns#"
   xmlns:rdf="http://www.w3.org/1999/02/22-rdf-syntax-ns#"
   xmlns:svg="http://www.w3.org/2000/svg"
   xmlns="http://www.w3.org/2000/svg"
   xmlns:sodipodi="http://sodipodi.sourceforge.net/DTD/sodipodi-0.dtd"
   xmlns:inkscape="http://www.inkscape.org/namespaces/inkscape"
   width="270.93332mm"
   height="180.62222mm"
   viewBox="0 0 959.99995 640"
   id="svg9866"
   version="1.1"
   inkscape:version="0.91 r13725"
   sodipodi:docname="Hacked teaser.svg">
  <defs
     id="defs9868" />
  <sodipodi:namedview
     id="base"
     pagecolor="#ffffff"
     bordercolor="#666666"
     borderopacity="1.0"
     inkscape:pageopacity="0.0"
     inkscape:pageshadow="2"
     inkscape:zoom="0.35"
     inkscape:cx="-29.28574"
     inkscape:cy="280.00001"
     inkscape:document-units="px"
     inkscape:current-layer="layer1"
     showgrid="false"
     fit-margin-top="0"
     fit-margin-left="0"
     fit-margin-right="0"
     fit-margin-bottom="0"
     inkscape:window-width="1366"
     inkscape:window-height="715"
     inkscape:window-x="-8"
     inkscape:window-y="-8"
     inkscape:window-maximized="1" />
  <metadata
     id="metadata9871">
    <rdf:RDF>
      <cc:Work
         rdf:about="">
        <dc:format>image/svg+xml</dc:format>
        <dc:type
           rdf:resource="http://purl.org/dc/dcmitype/StillImage" />
        <dc:title></dc:title>
      </cc:Work>
    </rdf:RDF>
  </metadata>
  <g
     inkscape:label="Capa 1"
     inkscape:groupmode="layer"
     id="layer1"
     transform="translate(122.85712,-172.36221)">
    <rect
       style="color:#000000;display:inline;overflow:visible;visibility:visible;fill:#000000;fill-opacity:1;fill-rule:nonzero;stroke:none;stroke-width:7;marker:none;enable-background:accumulate"
       id="rect3015-2-8-2-2-9-3-2-9-2-1-1-6-7-4-9-1-1-7"
       width="640"
       height="960"
       x="172.36221"
       y="-837.14288"
       inkscape:export-xdpi="90"
       inkscape:export-ydpi="90"
       inkscape:export-filename="C:\Users\Hector\Desktop\text4799-1-5-4-3-2-3.png"
       transform="matrix(0,1,-1,0,0,0)" />
    <text
       xml:space="preserve"
       style="font-style:normal;font-variant:normal;font-weight:normal;font-stretch:semi-condensed;font-size:40px;line-height:125%;font-family:'Lucida Console';-inkscape-font-specification:'Lucida Console Semi-Condensed';letter-spacing:0px;word-spacing:0px;fill:#000000;fill-opacity:1;stroke:none;stroke-width:1px;stroke-linecap:butt;stroke-linejoin:miter;stroke-opacity:1"
       x="98.316666"
       y="522.32019"
       id="text6774"
       sodipodi:linespacing="125%"><tspan
         sodipodi:role="line"
         id="tspan6776"
         x="98.316666"
         y="522.32019"
         style="font-style:normal;font-variant:normal;font-weight:normal;font-stretch:normal;font-size:150px;font-family:'Courier New';-inkscape-font-specification:'Courier New';fill:#ffffff">Hacked</tspan></text>
    <path
       inkscape:connector-curvature="0"
       d="m -101.12977,754.82566 0,20 13.332999,0 16.667,16.6666 0,-53.3333 -16.667,16.6667 -13.332999,0 z m 44.999999,10 c 0,-5.8834 -3.4,-10.9667 -8.333,-13.4167 l 0,26.85 c 4.933,-2.4667 8.333,-7.55 8.333,-13.4333 z m -8.333,-29.2334 0,6.8834 c 9.633,2.8666 16.666,11.7833 16.666,22.35 0,10.5666 -7.033,19.4833 -16.666,22.35 l 0,6.8833 c 13.35,-3.0333 23.333,-14.95 23.333,-29.2333 0,-14.2834 -9.983,-26.2 -23.333,-29.2334 z"
       id="path4-8-9"
       style="fill:#f0f0f0;fill-opacity:1"
       inkscape:export-filename="C:\_DEVELOPER\_PROYECTOS\C2 Games\Memory Attack\Assets\Inkscape\unmute.png"
       inkscape:export-xdpi="90"
       inkscape:export-ydpi="90" />
    <path
       inkscape:connector-curvature="0"
       d="m 761.72627,776.25416 -8.571,0 0,21.4286 21.429,0 0,-8.5714 -12.858,0 0,-12.8572 z m -8.571,-17.1428 8.571,0 0,-12.8572 12.858,0 0,-8.5714 -21.429,0 0,21.4286 z m 51.429,30 -12.858,0 0,8.5714 21.429,0 0,-21.4286 -8.571,0 0,12.8572 z m -12.858,-51.4286 0,8.5714 12.858,0 0,12.8572 8.571,0 0,-21.4286 -21.429,0 z"
       id="path6-7"
       style="fill:#f0f0f0;fill-opacity:1" />
    <path
       d="m 727.27327,173.69746 -0.02,0.01 c 0,0.02 0.959,2.0322 3.017,4.7553 1.209,1.599 2.558,3.1269 4.011,4.5411 1.815,1.7679 3.798,3.3619 5.892,4.738 2.407,1.6524 5.176,2.9172 8.715,3.9801 3.157,0.9482 6.54,1.62 10.121,2.3311 3.37,0.6692 6.853,1.3612 10.473,2.3444 4.582,1.4223 11.012,5.5304 11.077,5.5718 l 0.02,-0.015 c -0.02,-0.017 -1.59,-1.6959 -4.321,-3.6976 -1.604,-1.1755 -3.287,-2.2305 -5.003,-3.1363 -2.145,-1.1323 -4.348,-2.0322 -6.547,-2.6755 -0.865,-0.2836 -2.192,-0.6304 -3.873,-1.0697 -6.074,-1.5869 -16.239,-4.2433 -23.07,-8.7635 -3.522,-1.9302 -6.186,-4.2511 -7.801,-5.8581 -1.749,-1.7415 -2.678,-3.0429 -2.687,-3.0558 z m 102.188,8.8426 c -0.989,0 -2.657,0.125 -4.991,0.7209 -2.797,0.7137 -5.837,1.9189 -9.037,3.5821 -4.182,1.9953 -8.095,4.6831 -11.318,7.7724 -1.808,1.7338 -3.392,3.5895 -4.708,5.5157 -1.427,2.089 -2.554,4.2848 -3.349,6.5262 l 0.02,0.01 c 1.935,-3.6269 4.948,-7.1479 8.953,-10.4654 3.204,-2.6543 7.048,-5.1852 11.424,-7.5218 7.452,-3.9787 13.948,-6.0411 14.013,-6.0616 l 0,-0.019 c 0,0 -0.345,-0.057 -1.005,-0.057 z m -11.729,1.331 c -1.054,0 -3.212,0.1442 -5.838,1.1085 -3.13,1.1491 -6.027,3.1062 -8.613,5.8175 -2.155,2.1544 -4.096,4.7183 -5.615,7.4148 -1.731,3.0738 -2.913,6.2766 -3.511,9.5201 l 0.01,0.01 c 1.652,-4.2111 3.968,-8.0833 6.882,-11.508 2.331,-2.7399 5.049,-5.202 8.078,-7.3171 2.694,-1.882 5.141,-3.1355 6.719,-3.8557 1.711,-0.7802 2.797,-1.1197 2.807,-1.123 l 0,-0.019 c 0,0 -0.338,-0.043 -0.926,-0.043 z m -10.379,2.1871 c -0.01,0 -1.474,0.1506 -3.262,0.6418 -1.649,0.4536 -3.921,1.2998 -5.378,2.7573 l 0,0 c -0.02,0.032 -1.871,3.2149 -3.576,7.0058 -1.002,2.2268 -1.756,4.2243 -2.245,5.9375 -0.612,2.142 -0.805,3.843 -0.575,5.0555 l 0.02,0 c 1.145,-3.9709 2.647,-7.5659 4.465,-10.6853 1.455,-2.4955 3.112,-4.694 4.929,-6.5341 3.093,-3.1329 5.605,-4.1524 5.63,-4.1624 l 0,-0.019 z m -72.64,0.2582 -0.02,0.012 c 0.02,0.021 1.272,2.1447 3.668,4.564 1.407,1.4213 2.924,2.6649 4.511,3.6967 1.984,1.2899 4.081,2.2502 6.233,2.8549 7.426,2.5925 17.465,3.7041 24.107,4.4398 1.293,0.143 2.515,0.2785 3.542,0.4056 2.02,0.4334 3.394,1.0499 4.191,1.4908 0.864,0.4774 1.254,0.8566 1.258,0.8605 l 0.02,-0.012 c 0,-0.01 -0.456,-0.8481 -2.829,-2.0858 -1.392,-0.7263 -3.164,-1.4464 -5.268,-2.14 -2.628,-0.8673 -5.785,-1.6953 -9.38,-2.4614 -1.865,-0.1806 -5.881,-0.8881 -10.295,-2.0148 -2.286,-0.5838 -4.339,-1.194 -6.101,-1.814 -2.034,-0.7159 -3.624,-1.4268 -4.725,-2.1132 -3.336,-1.6664 -5.582,-3.123 -6.878,-4.0513 -1.405,-1.0059 -2.028,-1.6261 -2.034,-1.632 z m 62.919,3.5727 -4.085,2.0241 0,0 c -0.363,0.5354 -1.242,2.108 -1.968,4.2283 -0.533,1.5561 -0.913,3.177 -1.13,4.8179 -0.272,2.0513 -0.288,4.1392 -0.05,6.2064 l 0.02,0 c 0.371,-2.9573 0.981,-5.7052 1.814,-8.1671 0.666,-1.9695 1.476,-3.7616 2.406,-5.3263 0.828,-1.3921 1.6,-2.343 2.102,-2.8954 0.544,-0.5986 0.896,-0.8714 0.9,-0.8739 l 0,-0.016 z m -6.431,4.5523 c 0,0 -0.627,0.3233 -1.355,1.0011 -0.672,0.6253 -1.576,1.6915 -2.066,3.2204 -0.759,2.3669 -0.339,5.1202 1.249,8.1836 l 0.02,-0.01 c -0.355,-1.8779 -0.461,-3.6973 -0.317,-5.408 0.116,-1.3685 0.39,-2.6709 0.817,-3.8709 0.727,-2.0431 1.656,-3.0946 1.666,-3.1052 l -0.02,-0.015 z m -50.139,0.6676 -0.02,0.012 c 0,0.019 1.052,1.9189 3.361,4.0321 1.356,1.2412 2.876,2.3117 4.519,3.1823 2.054,1.0882 4.306,1.8655 6.694,2.3093 6.369,1.1914 10.618,1.2612 16.498,1.3579 1.636,0.027 3.491,0.057 5.539,0.1146 5.352,0.3751 9.475,1.7214 9.516,1.7351 l 0,-0.018 c -0.05,-0.026 -5.217,-2.6443 -10.52,-3.8926 -1.747,-0.3928 -4.591,-0.6683 -7.884,-0.987 -4.54,-0.4395 -10.19,-0.9865 -14.835,-2.0632 -2.032,-0.3599 -3.973,-0.8877 -5.77,-1.5692 -1.438,-0.5449 -2.787,-1.189 -4.01,-1.9138 -2.083,-1.234 -3.09,-2.2889 -3.1,-2.2992 z m 46.048,3.0377 -0.03,0.016 c 0,0 -0.658,0.3792 -1.312,1.0901 -0.603,0.6563 -1.328,1.7411 -1.366,3.1811 0.09,1.348 0.965,2.4378 1.679,3.1146 0.773,0.7331 1.534,1.1535 1.542,1.1576 l 0,-0.016 c 0,-0.01 -0.908,-0.6558 -1.42,-2.0241 -0.301,-0.8037 -0.412,-1.6944 -0.33,-2.6472 0.103,-1.1916 0.511,-2.4844 1.211,-3.8427 l 0.02,-0.029 z m -37.173,5.7038 0.02,0.033 c 0,0.015 0.707,1.4663 2.662,2.9786 1.148,0.888 2.499,1.6232 4.013,2.1849 1.892,0.7018 4.048,1.1333 6.409,1.2825 l 0.09,0.01 c 2.477,0.1828 4.112,0.304 6.389,0.304 2.234,0 5.078,-0.1185 9.818,-0.4083 3.577,0 6.384,0.2387 8.109,0.4391 1.868,0.2168 2.904,0.4367 2.914,0.4388 l 0,-0.019 c -0.07,-0.025 -6.969,-2.4352 -11.322,-2.928 -2.283,-0.1718 -4.967,-0.2729 -7.808,-0.3802 -3.502,-0.1324 -7.122,-0.2692 -10.648,-0.5529 -2.054,-0.2742 -5.111,-0.8509 -8.011,-2.04 -1.734,-0.7114 -2.599,-1.3125 -2.607,-1.3186 l -0.03,-0.021 z m 38.524,4.1938 c 0.359,0.2476 3.858,2.6817 4.225,3.6128 l 0,0.013 -0.02,0 c -2.632,0 -5.809,1.2083 -6.138,1.3366 0.186,0.05 1.272,0.3663 3.55,1.3923 l 0,0.019 c -2.172,0 -5.146,1.2761 -5.507,1.4347 0.371,0.026 3.216,0.2429 3.959,0.9852 l 0.02,0.013 -0.02,0 c -2.113,0.3745 -3.719,1.3826 -4.693,2.162 -0.87,0.6957 -1.406,1.338 -1.571,1.5472 0.177,-0.1442 0.689,-0.5351 1.482,-0.9215 0.916,-0.4467 2.406,-0.9791 4.302,-0.9791 0.294,0 0.596,0.013 0.893,0.038 1.125,0 2.265,-0.6143 2.276,-0.6205 l 0.02,0.015 c -2.264,2.4765 -5.07,4.6922 -5.755,5.2215 0.643,-0.396 2.992,-1.827 4.449,-2.4892 1.729,-0.8072 3.53,-1.4029 5.352,-1.7708 1.47,-0.297 2.959,-0.4474 4.427,-0.4474 2.117,0 3.773,0.3273 4.367,0.5035 0,-0.1813 0.04,-1.8983 0.366,-2.2233 0.327,-0.3275 2.691,-0.7902 2.897,-0.83 -0.03,-0.084 -0.234,-0.6669 -0.719,-1.4362 -0.481,-0.7647 -1.344,-1.8755 -2.721,-2.8256 -0.875,-0.6848 -2.232,-1.3087 -4.034,-1.854 -1.442,-0.4361 -3.171,-0.8232 -5.137,-1.1505 -3.151,-0.5242 -5.92,-0.7253 -6.263,-0.7489 z m -29.488,3.0213 0,0.012 c 0,0 -0.02,0.028 0,0.077 0.02,0.085 0.135,0.2263 0.504,0.4181 0.695,0.6398 2.129,1.8707 3.945,2.9307 2.21,1.2905 4.305,1.945 6.229,1.945 2.391,0 4.269,-0.6855 6.256,-1.4113 1.546,-0.5646 3.145,-1.1485 5.127,-1.4756 2.867,-0.4735 3.968,-0.5879 4.388,-0.6004 0.138,0.01 0.212,0.015 0.212,0.015 l 0.02,0 0,-0.013 c 0,-0.01 0,-0.023 -0.151,-0.023 -0.02,0 -0.05,0 -0.07,0 -0.684,-0.045 -2.507,-0.1485 -4.681,-0.1485 -1.94,0 -3.644,0.083 -5.066,0.2471 -2.76,0.2919 -4.81,0.4281 -6.451,0.4281 -2.635,0 -4.144,-0.355 -6.233,-0.8462 -0.174,-0.041 -0.352,-0.083 -0.535,-0.1256 -1.395,-0.3254 -2.393,-0.6416 -2.968,-0.9395 -0.319,-0.2946 -0.498,-0.4789 -0.5,-0.4807 l 0,-0.01 z m 41.027,1.9387 c 0.498,0 0.931,0.077 1.286,0.2278 0.865,0.179 2.605,1.3745 2.623,1.3866 l 0.02,0.017 -1.831,0 c -0.02,0.038 -0.118,0.2513 -0.298,0.462 -0.181,0.2135 -0.484,0.4681 -0.891,0.4681 -0.08,0 -0.156,-0.01 -0.234,-0.027 -0.485,-0.1096 -0.74,-0.3345 -0.868,-0.5041 -0.139,-0.1842 -0.163,-0.3404 -0.164,-0.347 l 0,-0.01 0.611,-0.6105 -1.869,-0.8221 -0.02,-0.011 0.02,-0.01 c 0,0 0.761,-0.2281 1.608,-0.2281 z m -36.876,2.9662 -0.02,0.014 c 0,0.012 1.084,1.1671 2.785,2.3075 1,0.6698 2.016,1.2035 3.024,1.5863 l 0,0 c 1.259,0.4784 2.505,0.7217 3.705,0.7217 0.136,0 0.274,0 0.41,-0.01 0.688,0 1.649,-0.2354 2.856,-0.7001 0.965,-0.3714 2.089,-0.8892 3.341,-1.5393 2.13,-1.1068 3.916,-2.2278 3.933,-2.2388 l 0,-0.018 c -4.177,1.3236 -8.023,1.9946 -11.43,1.9946 -3.124,0 -5.297,-0.5761 -6.57,-1.059 -1.379,-0.5237 -2.027,-1.054 -2.033,-1.0591 z m 44.527,0.593 0,0.01 c 0,0.01 -0.661,0.7664 -2.685,0.8374 -0.03,0 -0.06,0.013 -0.08,0.039 -0.221,0.2357 -0.141,1.5241 -0.137,1.5789 l 0,0.01 0,0 c 0,0 0.363,-0.029 0.909,-0.029 0.78,0 1.941,0.057 3.042,0.3278 1.31,0.3223 2.21,0.8654 2.676,1.6144 l 0.02,0.029 0,-0.034 c 0,-0.9124 -0.197,-1.7103 -0.585,-2.3715 -0.311,-0.5291 -0.744,-0.9722 -1.288,-1.317 -0.924,-0.5871 -1.862,-0.6867 -1.871,-0.6876 l 0,0 z m -25.259,1.6135 c -0.02,0.011 -1.448,1.1222 -3.462,2.219 -1.184,0.6442 -2.332,1.1575 -3.415,1.5255 -1.353,0.4598 -2.606,0.6932 -3.724,0.6932 -2.048,-0.2215 -3.823,-0.7444 -5.277,-1.5542 -1.197,-0.6665 -1.89,-1.3631 -2.306,-1.7794 l -0.07,-0.073 0,0.01 c -2.269,2.0535 -4.822,3.6925 -6.564,4.7064 -1.887,1.0984 -3.256,1.7188 -3.269,1.725 l 0,0.019 c 0.03,-0.01 3.062,-0.5193 4.481,-0.5193 0.438,0 0.679,0.047 0.717,0.1415 0.254,1.0487 -8.413,3.9456 -8.5,3.9746 l 0,0.019 c 0.04,-0.01 3.701,-0.6994 9.199,-2.7118 1.219,-0.2119 1.284,-0.212 2.915,-0.212 0.02,0.038 0.02,0.08 0,0.1263 -0.212,0.5252 -2.576,1.3878 -2.599,1.3966 l 0,0.019 c 0.03,2e-4 3.038,0.015 3.544,0.1717 0.513,0.5224 -1.353,2.8723 -1.372,2.896 l 0.01,0.014 c 0,-0.01 0.807,-0.7385 2.096,-1.4603 1.19,-0.6657 3.052,-1.4595 5.169,-1.4595 0.997,0 1.977,0.1752 2.912,0.5209 -0.222,0.1077 -2.192,1.065 -4.233,2.0104 l 0,0.019 c 2.051,-0.049 4.301,-0.6295 6.685,-1.7269 1.909,-0.8778 3.908,-2.0862 5.941,-3.5915 3.464,-2.5628 5.859,-5.1327 5.883,-5.1583 l 0.02,-0.024 -0.03,0.01 -8.897,2.2244 4.148,-4.1489 -0.02,-0.015 z m 11.78,2.0988 c -0.05,0.022 -5.771,2.1989 -8.137,3.8291 -0.589,0.3858 -1.168,0.7698 -1.729,1.1414 -4.181,2.7708 -7.793,5.1641 -11.773,6.1941 -2.572,0.8097 -4.812,0.8508 -5.234,0.8508 -0.05,0 -0.08,0 -0.08,0 l 0,0.019 c 0,0 0.797,0.094 2.043,0.094 l 0,0 c 1.939,0 4.875,-0.2193 7.85,-1.2637 3.093,-0.8702 7.552,-4.2082 10.217,-6.2027 0.264,-0.1973 0.513,-0.3835 0.737,-0.551 1.84,-1.8394 6.071,-4.0706 6.113,-4.0929 l 0,-0.018 z m -37.543,5.9085 c -0.105,0.01 -10.613,0.7525 -15.494,2.2583 -1.877,0.5791 -3.124,1.0657 -4.224,1.4951 -1.744,0.6809 -3.004,1.1727 -5.543,1.4978 -0.226,0.026 -0.462,0.039 -0.7,0.039 -1.563,0 -3.101,-0.5529 -4.116,-1.0164 -1.1,-0.5021 -1.84,-1.0105 -1.847,-1.0157 l -0.01,0.014 c 0.01,0.022 1.707,2.2182 3.837,3.1015 1.131,0.4689 2.299,0.6873 3.676,0.6873 1.828,0 4.098,-0.3965 6.939,-1.2121 7.321,-2.8556 17.387,-5.7999 17.488,-5.8292 l 0,-0.019 z m 2.972,2.0406 -0.03,0.01 c -0.129,0.03 -12.992,3.0009 -16.542,4.2087 -4.72,1.6062 -6.798,1.8631 -8.809,2.1117 -0.74,0.091 -1.439,0.178 -2.256,0.3302 -0.29,0.03 -0.602,0.046 -0.924,0.046 -2.024,0 -4.31,-0.6067 -5.871,-1.1155 -1.691,-0.5518 -2.919,-1.1103 -2.931,-1.116 l 0,0.015 c 0,0.01 0.924,1.0081 2.796,1.9924 1.099,0.5781 2.309,1.0385 3.595,1.3689 1.607,0.4128 3.341,0.6224 5.151,0.6224 1.737,0 3.574,-0.194 5.458,-0.5763 5.703,-1.1866 7.858,-2.2157 9.759,-3.1238 0.757,-0.3614 1.472,-0.703 2.347,-1.016 3.716,-1.3837 5.761,-2.3239 6.821,-2.8692 1.15,-0.5911 1.424,-0.859 1.427,-0.8618 l 0.02,-0.024 z m 10.575,0.4809 c -2.707,1.2353 -10.296,4.8884 -19.643,9.8738 -3.717,1.5995 -5.797,1.6804 -6.176,1.6804 -0.05,0 -0.07,0 -0.07,0 l -0.02,0 0.01,0.018 c 0,0.01 1.073,1.0151 3.265,1.0151 0.97,0 2.022,-0.1951 3.126,-0.5806 1.332,-0.4647 2.754,-1.2111 4.229,-2.2193 4.206,-3.2707 15.173,-9.7034 15.283,-9.768 l 0,-0.017 z m -7.562,1.0498 c -1.185,0.2909 -4.409,1.2906 -8.124,2.9939 -1.629,0.7387 -4.879,2.048 -7.939,3.1204 -2.703,0.9483 -6.293,2.0782 -8.04,2.0782 -1.662,0.2595 -3.813,0.4705 -3.834,0.4726 l -0.03,0 0.02,0.015 c 0.02,0.011 1.957,1.1261 5.185,1.1261 1.85,0 3.766,-0.3612 5.695,-1.0727 6.942,-2.6032 7.997,-3.3196 9.746,-4.5066 0.468,-0.3172 0.998,-0.6768 1.704,-1.1134 3.269,-2.0247 5.595,-3.0872 5.618,-3.0978 l 0,-0.019 z m 3.778,2.9951 c -0.02,0.019 -2.474,1.8867 -5.271,3.8333 -4.676,3.2548 -6.71,4.2233 -7.593,4.4628 l 0,0.019 c 0,0 0.486,0.091 1.216,0.091 0.922,0 2.308,-0.1437 3.675,-0.8277 1.71,-0.76 3.791,-2.7764 5.235,-4.3346 1.565,-1.6875 2.74,-3.2153 2.751,-3.2305 l -0.01,-0.014 z"
       style="fill:#ffffff;fill-opacity:1;fill-rule:nonzero;stroke:none"
       id="path60"
       inkscape:connector-curvature="0" />
    <text
       xml:space="preserve"
       style="font-style:normal;font-variant:normal;font-weight:normal;font-stretch:normal;font-size:50px;line-height:125%;font-family:'Courier New';-inkscape-font-specification:'Courier New';letter-spacing:0px;word-spacing:0px;fill:#000000;fill-opacity:1;stroke:none;stroke-width:1px;stroke-linecap:butt;stroke-linejoin:miter;stroke-opacity:1"
       x="-14.600325"
       y="319.03458"
       id="text6812-5"
       sodipodi:linespacing="125%"><tspan
         sodipodi:role="line"
         id="tspan6814-7"
         x="-14.600325"
         y="319.03458"
         style="font-style:normal;font-variant:normal;font-weight:bold;font-stretch:normal;font-size:50px;font-family:'Courier New';-inkscape-font-specification:'Courier New Bold';fill:#ffffff">&gt;_</tspan></text>
  </g>
</svg>
